<svg width="64" height="64" viewBox="0 0 64 64" fill="none" xmlns="http://www.w3.org/2000/svg">
<path d="M19.5733 17.4773C23.1787 14.9667 27.2613 13.524 31.3773 13.524C38.256 13.524 44.164 16.844 48.396 22.112M9.46267 30.3573C10.2184 28.506 11.1535 26.7331 12.2547 25.064M43.7227 22.76C43.7261 22.6055 43.6982 22.4519 43.6407 22.3085C43.5832 22.165 43.4972 22.0347 43.3879 21.9255C43.2786 21.8162 43.1483 21.7302 43.0049 21.6726C42.8614 21.6151 42.7078 21.5872 42.5533 21.5907L36.2533 21.7333C34.9453 21.7333 33.72 22.188 32.8133 23.096C30.7093 25.1987 31.112 29.012 33.712 31.612C36.312 34.212 40.1253 34.6147 42.228 32.5107C43.1347 31.604 43.58 30.376 43.58 29.068L43.7227 22.76Z" stroke="#666666" stroke-width="1.33333" stroke-linecap="round" stroke-linejoin="round"/>
<path d="M39.684 15.2533L35.8333 5.16667C35.7662 4.98959 35.6509 4.83486 35.5003 4.72001C35.3498 4.60516 35.1701 4.53479 34.9816 4.51688C34.793 4.49898 34.6033 4.53425 34.4338 4.61869C34.2643 4.70314 34.1219 4.83339 34.0227 4.99467L28.644 13.704M48.0227 21.64V17.3453C48.0227 17.132 47.8227 16.9747 47.616 17.0267L44.168 17.8933M10.1947 28.7067L6.84 22.4C6.79526 22.3164 6.77296 22.2227 6.77527 22.128C6.77759 22.0332 6.80444 21.9407 6.8532 21.8594C6.90197 21.7781 6.97098 21.7109 7.0535 21.6642C7.13601 21.6176 7.22922 21.5932 7.324 21.5933H11.2667M22.0067 18.424C21.7828 18.2138 21.5137 18.0578 21.22 17.968L10.3293 14.8573C10.224 14.8276 10.1126 14.8266 10.0066 14.8542C9.90072 14.8819 9.80407 14.9372 9.72666 15.0147C9.64924 15.0921 9.59386 15.1887 9.56621 15.2946C9.53856 15.4006 9.53964 15.512 9.56933 15.6173L12.7093 26.62C12.8107 26.8733 12.9413 27.108 13.1347 27.296C13.7707 27.9147 17.54 27.7293 19.9907 25.28C22.4413 22.8307 23.3427 19.76 22.0067 18.424ZM60.2587 22.1467C58.8493 21.996 47.9827 22.1467 47.9827 22.1467C47.8518 22.1505 47.7234 22.1833 47.6067 22.2427C46.5573 22.7987 46.9373 25.5747 48.4587 28.4427C49.9787 31.3093 52.0627 33.18 53.112 32.624C53.2253 32.564 53.4 32.3707 53.4 32.3707C56.4453 28.9307 59.496 24.228 60.536 22.7573C60.5761 22.7021 60.6008 22.6372 60.6077 22.5693C60.6145 22.5014 60.6033 22.4329 60.5752 22.3707C60.547 22.3086 60.5029 22.255 60.4473 22.2154C60.3917 22.1758 60.3266 22.1516 60.2587 22.1453V22.1467Z" stroke="#666666" stroke-width="1.33333" stroke-linecap="round" stroke-linejoin="round"/>
<path d="M53.9093 31.7893C54.292 32.1907 55.7493 40.4267 45.5467 40.064C35.9733 39.7227 23.8027 32.9573 18.7387 31.312C14.4613 29.9227 8.86667 28.844 5.292 32.872C3.292 35.1253 0.982666 42.028 9.21067 45.0987M45.1427 18.748L41.5573 19.7653L29.504 18.5107L22.38 15.7907" stroke="#666666" stroke-width="1.33333" stroke-linecap="round" stroke-linejoin="round"/>
<path d="M29.504 18.5107L27.568 27.7973M27.568 27.7973L20.7573 32.0667M27.568 27.7973L29.4027 35.7547M43.6613 25.4467L46.632 33.468M46.632 33.468L43.2893 39.8747M46.632 33.468L49.4227 39.6933M41.5573 19.7653L42.2333 21.5907M14.3467 52.1173C18.9867 58.0853 29.8573 60.92 38.484 58.7733C44.5947 57.252 50.3547 53.5973 51.3373 48.1613" stroke="#666666" stroke-width="1.33333" stroke-linecap="round" stroke-linejoin="round"/>
<path d="M35.096 47.3693C34.9521 48.0237 34.6734 48.641 34.2778 49.1817C33.8822 49.7225 33.3782 50.1749 32.798 50.5101C32.2179 50.8454 31.5743 51.0561 30.9082 51.1288C30.2421 51.2015 29.5682 51.1347 28.9294 50.9326C28.2905 50.7304 27.7008 50.3974 27.1978 49.9548C26.6948 49.5122 26.2895 48.9696 26.0077 48.3617C25.726 47.7537 25.574 47.0938 25.5614 46.4239C25.5488 45.7539 25.676 45.0887 25.9347 44.4707" stroke="#666666" stroke-width="1.33333" stroke-linecap="round" stroke-linejoin="round"/>
<path d="M20.5867 56.8947C22.484 57.1387 24.78 56.872 26.8027 55.588C28.6 54.4467 29.664 53.128 29.936 51.132M31.4613 59.4707C35.068 58.6493 37.6613 56.6533 39.0787 54.724C41.2293 51.796 41.392 50.3373 41.564 48.7253M12.804 39.3173C12.3853 40.2493 12.136 41.416 12.136 42.6813C12.136 45.7333 13.584 48.2067 15.3693 48.2067C17.1547 48.2067 18.604 45.7333 18.604 42.6813C18.604 42.2973 18.5813 41.9227 18.5373 41.5613" stroke="#666666" stroke-width="1.33333" stroke-linecap="round" stroke-linejoin="round"/>
<path d="M9.83733 38.0627C9.53035 39.2428 9.31944 40.4458 9.20667 41.66C8.48267 49.0853 12.3027 52.3613 16.1213 52.3613C19.6987 52.3613 22.6413 48.7173 23 42.876" stroke="#666666" stroke-width="1.33333" stroke-linecap="round" stroke-linejoin="round"/>
<path d="M53.9093 31.7893C55.5467 32.1493 59.888 36.8027 58.9947 40.616C58.2773 43.6733 56.972 46.1093 50.0013 48.5893C42.1427 51.3827 22.8453 42.6373 15.3693 39.8787C13.0093 39.008 5.42 35.0213 4.55067 41.82" stroke="#666666" stroke-width="1.33333" stroke-linecap="round" stroke-linejoin="round"/>
</svg>
