<svg width="64" height="64" viewBox="0 0 64 64" fill="none" xmlns="http://www.w3.org/2000/svg">
<g filter="url(#filter0_d_44_4)">
<path d="M52 8H46V6C46 5.46957 45.7893 4.96086 45.4142 4.58579C45.0391 4.21071 44.5304 4 44 4C43.4696 4 42.9609 4.21071 42.5858 4.58579C42.2107 4.96086 42 5.46957 42 6V8H22V6C22 5.46957 21.7893 4.96086 21.4142 4.58579C21.0391 4.21071 20.5304 4 20 4C19.4696 4 18.9609 4.21071 18.5858 4.58579C18.2107 4.96086 18 5.46957 18 6V8H12C10.9391 8 9.92172 8.42143 9.17157 9.17157C8.42143 9.92172 8 10.9391 8 12V52C8 53.0609 8.42143 54.0783 9.17157 54.8284C9.92172 55.5786 10.9391 56 12 56H52C53.0609 56 54.0783 55.5786 54.8284 54.8284C55.5786 54.0783 56 53.0609 56 52V12C56 10.9391 55.5786 9.92172 54.8284 9.17157C54.0783 8.42143 53.0609 8 52 8ZM28 46C28 46.5304 27.7893 47.0391 27.4142 47.4142C27.0391 47.7893 26.5304 48 26 48C25.4696 48 24.9609 47.7893 24.5858 47.4142C24.2107 47.0391 24 46.5304 24 46V33.235L22.895 33.79C22.4203 34.0274 21.8707 34.0664 21.3671 33.8986C20.8636 33.7307 20.4474 33.3697 20.21 32.895C19.9726 32.4203 19.9336 31.8707 20.1014 31.3671C20.2693 30.8636 20.6303 30.4474 21.105 30.21L25.105 28.21C25.41 28.0574 25.749 27.9853 26.0898 28.0006C26.4305 28.0159 26.7617 28.1181 27.0518 28.2975C27.3419 28.4769 27.5813 28.7274 27.7473 29.0254C27.9133 29.3234 28.0002 29.6589 28 30V46ZM42 44C42.5304 44 43.0391 44.2107 43.4142 44.5858C43.7893 44.9609 44 45.4696 44 46C44 46.5304 43.7893 47.0391 43.4142 47.4142C43.0391 47.7893 42.5304 48 42 48H34C33.6286 48 33.2645 47.8966 32.9485 47.7013C32.6326 47.506 32.3773 47.2266 32.2111 46.8944C32.045 46.5622 31.9747 46.1903 32.0081 45.8204C32.0414 45.4505 32.1771 45.0971 32.4 44.8L39.595 35.2075C39.7587 34.9896 39.8761 34.7406 39.94 34.4757C40.004 34.2109 40.0131 33.9357 39.9669 33.6672C39.9207 33.3986 39.8201 33.1423 39.6713 32.9141C39.5225 32.6858 39.3286 32.4904 39.1015 32.3397C38.8745 32.1891 38.619 32.0864 38.3508 32.0381C38.0827 31.9897 37.8075 31.9967 37.5421 32.0585C37.2767 32.1203 37.0267 32.2357 36.8076 32.3976C36.5884 32.5595 36.4046 32.7645 36.2675 33C36.1401 33.2347 35.9669 33.4415 35.7582 33.6082C35.5496 33.7749 35.3096 33.8981 35.0526 33.9706C34.7955 34.043 34.5265 34.0633 34.2615 34.0301C33.9965 33.9969 33.7408 33.911 33.5096 33.7775C33.2783 33.6439 33.0761 33.4653 32.915 33.2523C32.7538 33.0394 32.637 32.7962 32.5713 32.5374C32.5056 32.2785 32.4925 32.0091 32.5326 31.745C32.5728 31.481 32.6654 31.2277 32.805 31C33.4657 29.8567 34.485 28.9633 35.705 28.4582C36.9251 27.9532 38.2776 27.8647 39.5531 28.2065C40.8285 28.5483 41.9556 29.3012 42.7596 30.3487C43.5636 31.3961 43.9996 32.6796 44 34C44.0042 35.3044 43.579 36.5738 42.79 37.6125L38 44H42ZM12 20V12H18V14C18 14.5304 18.2107 15.0391 18.5858 15.4142C18.9609 15.7893 19.4696 16 20 16C20.5304 16 21.0391 15.7893 21.4142 15.4142C21.7893 15.0391 22 14.5304 22 14V12H42V14C42 14.5304 42.2107 15.0391 42.5858 15.4142C42.9609 15.7893 43.4696 16 44 16C44.5304 16 45.0391 15.7893 45.4142 15.4142C45.7893 15.0391 46 14.5304 46 14V12H52V20H12Z" fill="black"/>
</g>
<defs>
<filter id="filter0_d_44_4" x="-4" y="0" width="72" height="72" filterUnits="userSpaceOnUse" color-interpolation-filters="sRGB">
<feFlood flood-opacity="0" result="BackgroundImageFix"/>
<feColorMatrix in="SourceAlpha" type="matrix" values="0 0 0 0 0 0 0 0 0 0 0 0 0 0 0 0 0 0 127 0" result="hardAlpha"/>
<feOffset dy="4"/>
<feGaussianBlur stdDeviation="2"/>
<feComposite in2="hardAlpha" operator="out"/>
<feColorMatrix type="matrix" values="0 0 0 0 0 0 0 0 0 0 0 0 0 0 0 0 0 0 0.25 0"/>
<feBlend mode="normal" in2="BackgroundImageFix" result="effect1_dropShadow_44_4"/>
<feBlend mode="normal" in="SourceGraphic" in2="effect1_dropShadow_44_4" result="shape"/>
</filter>
</defs>
</svg>
