<svg width="64" height="64" viewBox="0 0 64 64" fill="none" xmlns="http://www.w3.org/2000/svg">
<path d="M8.00001 34.6667H10.6667V53.3333C10.6667 56.2747 13.0587 58.6667 16 58.6667H48C50.9413 58.6667 53.3333 56.2747 53.3333 53.3333V34.6667H56C56.5273 34.6666 57.0428 34.5101 57.4812 34.2171C57.9197 33.924 58.2614 33.5076 58.4631 33.0204C58.6649 32.5332 58.7177 31.9971 58.6149 31.4799C58.512 30.9627 58.2582 30.4876 57.8853 30.1147L33.8853 6.11466C33.6379 5.86681 33.344 5.67017 33.0205 5.53601C32.697 5.40185 32.3502 5.33279 32 5.33279C31.6498 5.33279 31.303 5.40185 30.9795 5.53601C30.656 5.67017 30.3621 5.86681 30.1147 6.11466L6.11467 30.1147C5.74185 30.4876 5.48796 30.9627 5.38512 31.4799C5.28227 31.9971 5.33508 32.5332 5.53687 33.0204C5.73865 33.5076 6.08036 33.924 6.51878 34.2171C6.95721 34.5101 7.47267 34.6666 8.00001 34.6667ZM26.6667 53.3333V40H37.3333V53.3333H26.6667ZM32 11.7707L48 27.7707V40L48.0027 53.3333H42.6667V40C42.6667 37.0587 40.2747 34.6667 37.3333 34.6667H26.6667C23.7253 34.6667 21.3333 37.0587 21.3333 40V53.3333H16V27.7707L32 11.7707Z" fill="#666666"/>
</svg>
