<svg width="64" height="64" viewBox="0 0 64 64" fill="none" xmlns="http://www.w3.org/2000/svg">
<path d="M21.3333 18.6213C20.6261 18.6213 19.9478 18.9023 19.4477 19.4024C18.9476 19.9025 18.6667 20.5808 18.6667 21.288C18.6667 21.9952 18.9476 22.6735 19.4477 23.1736C19.9478 23.6737 20.6261 23.9547 21.3333 23.9547H42.6667C43.3739 23.9547 44.0522 23.6737 44.5523 23.1736C45.0524 22.6735 45.3333 21.9952 45.3333 21.288C45.3333 20.5808 45.0524 19.9025 44.5523 19.4024C44.0522 18.9023 43.3739 18.6213 42.6667 18.6213H21.3333ZM18.6667 32C18.6667 31.2928 18.9476 30.6145 19.4477 30.1144C19.9478 29.6143 20.6261 29.3333 21.3333 29.3333H42.6667C43.3739 29.3333 44.0522 29.6143 44.5523 30.1144C45.0524 30.6145 45.3333 31.2928 45.3333 32C45.3333 32.7072 45.0524 33.3855 44.5523 33.8856C44.0522 34.3857 43.3739 34.6667 42.6667 34.6667H21.3333C20.6261 34.6667 19.9478 34.3857 19.4477 33.8856C18.9476 33.3855 18.6667 32.7072 18.6667 32ZM21.3333 40.0453C20.6261 40.0453 19.9478 40.3263 19.4477 40.8264C18.9476 41.3265 18.6667 42.0048 18.6667 42.712C18.6667 43.4192 18.9476 44.0975 19.4477 44.5976C19.9478 45.0977 20.6261 45.3787 21.3333 45.3787H42.6667C43.3739 45.3787 44.0522 45.0977 44.5523 44.5976C45.0524 44.0975 45.3333 43.4192 45.3333 42.712C45.3333 42.0048 45.0524 41.3265 44.5523 40.8264C44.0522 40.3263 43.3739 40.0453 42.6667 40.0453H21.3333Z" fill="#666666"/>
<path fill-rule="evenodd" clip-rule="evenodd" d="M58.6667 32C58.6667 46.728 46.728 58.6667 32 58.6667C17.272 58.6667 5.33333 46.728 5.33333 32C5.33333 17.272 17.272 5.33333 32 5.33333C46.728 5.33333 58.6667 17.272 58.6667 32ZM53.3333 32C53.3333 37.6579 51.0857 43.0842 47.0849 47.0849C43.0842 51.0857 37.6579 53.3333 32 53.3333C26.342 53.3333 20.9158 51.0857 16.9151 47.0849C12.9143 43.0842 10.6667 37.6579 10.6667 32C10.6667 26.342 12.9143 20.9158 16.9151 16.9151C20.9158 12.9143 26.342 10.6667 32 10.6667C37.6579 10.6667 43.0842 12.9143 47.0849 16.9151C51.0857 20.9158 53.3333 26.342 53.3333 32Z" fill="#666666"/>
</svg>
