<svg width="64" height="64" viewBox="0 0 64 64" fill="none" xmlns="http://www.w3.org/2000/svg">
<path d="M32 5.33333C46.728 5.33333 58.6667 17.272 58.6667 32C58.6667 46.728 46.728 58.6667 32 58.6667C17.272 58.6667 5.33334 46.728 5.33334 32C5.33334 17.272 17.272 5.33333 32 5.33333ZM32 10.6667C26.3421 10.6667 20.9158 12.9143 16.9151 16.9151C12.9143 20.9158 10.6667 26.342 10.6667 32C10.6667 37.6579 12.9143 43.0842 16.9151 47.0849C20.9158 51.0857 26.3421 53.3333 32 53.3333C37.658 53.3333 43.0842 51.0857 47.0849 47.0849C51.0857 43.0842 53.3333 37.6579 53.3333 32C53.3333 26.342 51.0857 20.9158 47.0849 16.9151C43.0842 12.9143 37.658 10.6667 32 10.6667ZM32 18.6667C32.7072 18.6667 33.3855 18.9476 33.8856 19.4477C34.3857 19.9478 34.6667 20.6261 34.6667 21.3333V29.3333H42.6667C43.3739 29.3333 44.0522 29.6143 44.5523 30.1144C45.0524 30.6145 45.3333 31.2928 45.3333 32C45.3333 32.7072 45.0524 33.3855 44.5523 33.8856C44.0522 34.3857 43.3739 34.6667 42.6667 34.6667H34.6667V42.6667C34.6667 43.3739 34.3857 44.0522 33.8856 44.5523C33.3855 45.0524 32.7072 45.3333 32 45.3333C31.2928 45.3333 30.6145 45.0524 30.1144 44.5523C29.6143 44.0522 29.3333 43.3739 29.3333 42.6667V34.6667H21.3333C20.6261 34.6667 19.9478 34.3857 19.4477 33.8856C18.9476 33.3855 18.6667 32.7072 18.6667 32C18.6667 31.2928 18.9476 30.6145 19.4477 30.1144C19.9478 29.6143 20.6261 29.3333 21.3333 29.3333H29.3333V21.3333C29.3333 20.6261 29.6143 19.9478 30.1144 19.4477C30.6145 18.9476 31.2928 18.6667 32 18.6667Z" fill="#666666"/>
</svg>
