<svg width="64" height="64" viewBox="0 0 64 64" fill="none" xmlns="http://www.w3.org/2000/svg">
<path d="M48.6666 29.3334C49.1499 29.3334 49.6169 29.5084 49.9811 29.8261C50.3454 30.1438 50.5823 30.5826 50.648 31.0614L50.6666 31.3334V32.6667C50.6671 37.2096 48.9497 41.5847 45.859 44.9142C42.7684 48.2438 38.533 50.2815 34.0026 50.6187L34 56.6667C33.9998 57.1734 33.8073 57.6612 33.4614 58.0315C33.1154 58.4018 32.6419 58.6269 32.1363 58.6614C31.6307 58.696 31.1309 58.5373 30.7378 58.2176C30.3448 57.8978 30.0877 57.4407 30.0186 56.9387L30 56.6667V50.6187C25.5774 50.2903 21.4316 48.3407 18.3579 45.1439C15.2841 41.9471 13.4987 37.7281 13.344 33.296L13.3333 32.6667V31.3334C13.3335 30.8266 13.526 30.3389 13.8719 29.9686C14.2178 29.5983 14.6914 29.3732 15.197 29.3386C15.7025 29.3041 16.2024 29.4627 16.5954 29.7825C16.9885 30.1023 17.2456 30.5594 17.3146 31.0614L17.3333 31.3334V32.6667C17.333 36.2802 18.7299 39.7539 21.2318 42.3612C23.7337 44.9685 27.1469 46.5074 30.7573 46.656L31.3333 46.6667H32.6666C36.2802 46.667 39.7538 45.2701 42.3611 42.7682C44.9684 40.2663 46.5073 36.8532 46.656 33.2427L46.6666 32.6667V31.3334C46.6666 30.8029 46.8774 30.2942 47.2524 29.9192C47.6275 29.5441 48.1362 29.3334 48.6666 29.3334ZM32 5.33337C34.829 5.33337 37.5421 6.45718 39.5425 8.45757C41.5428 10.458 42.6666 13.1711 42.6666 16V32C42.6666 34.829 41.5428 37.5421 39.5425 39.5425C37.5421 41.5429 34.829 42.6667 32 42.6667C29.171 42.6667 26.4579 41.5429 24.4575 39.5425C22.4571 37.5421 21.3333 34.829 21.3333 32V16C21.3333 13.1711 22.4571 10.458 24.4575 8.45757C26.4579 6.45718 29.171 5.33337 32 5.33337Z" fill="#F24E1E"/>
</svg>
