<svg width="64" height="64" viewBox="0 0 64 64" fill="none" xmlns="http://www.w3.org/2000/svg">
<path fill-rule="evenodd" clip-rule="evenodd" d="M32 10.6667C30.5855 10.6667 29.2289 11.2286 28.2288 12.2288C27.2286 13.229 26.6667 14.5855 26.6667 16H37.3333C37.3333 14.5855 36.7714 13.229 35.7712 12.2288C34.771 11.2286 33.4145 10.6667 32 10.6667ZM24.944 7.99999C26.824 6.34133 29.296 5.33333 32 5.33333C34.704 5.33333 37.1733 6.34133 39.056 7.99999H48C49.4145 7.99999 50.771 8.5619 51.7712 9.56209C52.7714 10.5623 53.3333 11.9188 53.3333 13.3333V53.3333C53.3333 54.7478 52.7714 56.1044 51.7712 57.1046C50.771 58.1048 49.4145 58.6667 48 58.6667H16C14.5855 58.6667 13.2289 58.1048 12.2288 57.1046C11.2286 56.1044 10.6667 54.7478 10.6667 53.3333V13.3333C10.6667 11.9188 11.2286 10.5623 12.2288 9.56209C13.2289 8.5619 14.5855 7.99999 16 7.99999H24.944ZM21.6693 13.3333H16V53.3333H48V13.3333H42.3307C42.5493 14.1867 42.6667 15.08 42.6667 16V18.6667C42.6667 19.3739 42.3857 20.0522 41.8856 20.5523C41.3855 21.0524 40.7072 21.3333 40 21.3333H24C23.2927 21.3333 22.6145 21.0524 22.1144 20.5523C21.6143 20.0522 21.3333 19.3739 21.3333 18.6667V16C21.3333 15.08 21.4507 14.1867 21.6693 13.3333ZM21.3333 29.3333C21.3333 28.6261 21.6143 27.9478 22.1144 27.4477C22.6145 26.9476 23.2927 26.6667 24 26.6667H40C40.7072 26.6667 41.3855 26.9476 41.8856 27.4477C42.3857 27.9478 42.6667 28.6261 42.6667 29.3333C42.6667 30.0406 42.3857 30.7188 41.8856 31.2189C41.3855 31.719 40.7072 32 40 32H24C23.2927 32 22.6145 31.719 22.1144 31.2189C21.6143 30.7188 21.3333 30.0406 21.3333 29.3333ZM21.3333 40C21.3333 39.2928 21.6143 38.6145 22.1144 38.1144C22.6145 37.6143 23.2927 37.3333 24 37.3333H32C32.7072 37.3333 33.3855 37.6143 33.8856 38.1144C34.3857 38.6145 34.6667 39.2928 34.6667 40C34.6667 40.7072 34.3857 41.3855 33.8856 41.8856C33.3855 42.3857 32.7072 42.6667 32 42.6667H24C23.2927 42.6667 22.6145 42.3857 22.1144 41.8856C21.6143 41.3855 21.3333 40.7072 21.3333 40Z" fill="#666666"/>
</svg>
