<svg width="175" height="48" viewBox="0 0 175 48" fill="none" xmlns="http://www.w3.org/2000/svg">
<path d="M88.3045 4.84225C87.174 4.84225 85.9155 5.576 84.9626 7.4815L84.1117 9.184C84.4217 9.15863 84.7327 9.14526 85.0436 9.14526C87.2961 9.14526 89.5442 9.81563 91.5274 11.1424V7.26938C90.5899 5.52975 89.3895 4.84225 88.3045 4.84225ZM105.695 4.84225C104.61 4.84225 103.41 5.52975 102.473 7.2695V11.1438C104.731 9.63625 107.335 8.98375 109.891 9.189L109.037 7.4815C108.084 5.57588 106.826 4.84225 105.695 4.84225ZM85.0435 11.333C82.6622 11.333 80.2835 12.2946 78.326 14.208L73.6535 22.3853C75.465 21.5424 77.4826 21.0705 79.6085 21.0705C84.6035 21.0705 89.0035 23.6695 91.5272 27.586V13.9808C89.6156 12.2164 87.3297 11.333 85.0435 11.333ZM109.098 11.3371C106.765 11.2989 104.424 12.1796 102.473 13.9803V27.5859C104.997 23.6696 109.397 21.0705 114.391 21.0705C116.518 21.0705 118.535 21.5424 120.347 22.3853L115.674 14.208C113.756 12.3326 111.43 11.3755 109.098 11.3371ZM97 12.9946C96.3609 12.9946 95.5147 13.3415 93.7771 14.198V30.8248C94.6829 30.1605 95.7976 29.7664 97 29.7664C98.2025 29.7664 99.3171 30.1606 100.223 30.8249V14.198C98.4854 13.3415 97.6391 12.9946 97 12.9946ZM79.6088 23.3205C73.0129 23.3205 67.69 28.6433 67.69 35.239C67.69 41.8348 73.0129 47.1578 79.6088 47.1578C86.2044 47.1578 91.5271 41.8348 91.5271 35.239C91.5271 28.6433 86.2045 23.3205 79.6088 23.3205ZM114.391 23.3205C107.796 23.3205 102.473 28.6433 102.473 35.239C102.473 41.8348 107.796 47.1578 114.391 47.1578C120.987 47.1578 126.31 41.8348 126.31 35.239C126.31 28.6433 120.987 23.3205 114.391 23.3205ZM79.4129 25.696C79.566 25.6938 79.7191 25.695 79.8721 25.6998C80.7901 25.7279 81.7089 25.8825 82.5934 26.1768C87.1986 27.5946 90.0615 32.6348 88.9211 37.3155C87.9646 42.0334 83.2392 45.3793 78.4717 44.7118C73.6282 44.2286 69.7997 39.7645 70.0767 34.9014C70.0976 33.4751 70.4684 32.1094 71.1017 30.8859C71.3255 31.5222 71.7411 32.0735 72.2913 32.4638C72.8415 32.8541 73.4992 33.0641 74.1737 33.065C74.602 33.0651 75.026 32.9808 75.4217 32.8169C75.8173 32.6531 76.1768 32.4129 76.4796 32.1102C76.7825 31.8074 77.0227 31.448 77.1866 31.0524C77.3506 30.6567 77.435 30.2327 77.435 29.8045C77.4342 29.1296 77.224 28.4715 76.8334 27.9211C76.4428 27.3707 75.891 26.955 75.2541 26.7315C76.3864 26.1448 77.6412 25.7823 78.9549 25.7131C79.1074 25.7041 79.2601 25.6984 79.4129 25.696ZM114.195 25.696C114.348 25.6938 114.502 25.695 114.654 25.6998C115.572 25.7279 116.492 25.8825 117.376 26.1768C121.981 27.5946 124.844 32.6348 123.704 37.3155C122.747 42.0333 118.022 45.3793 113.255 44.7121C108.411 44.229 104.582 39.7644 104.86 34.9011C104.88 33.4749 105.251 32.1094 105.885 30.8859C106.108 31.5222 106.524 32.0735 107.074 32.4638C107.624 32.854 108.282 33.0641 108.956 33.065C109.821 33.065 110.651 32.7215 111.262 32.11C111.874 31.4986 112.217 30.6693 112.217 29.8045C112.216 29.1296 112.006 28.4716 111.616 27.9212C111.225 27.3708 110.674 26.9551 110.037 26.7315C111.169 26.1448 112.424 25.7823 113.737 25.7131C113.89 25.7041 114.042 25.6984 114.195 25.696ZM97 32.0163C95.2067 32.0163 93.7771 33.4458 93.7771 35.239C93.7771 37.0323 95.2067 38.4619 97 38.4619C98.7932 38.4619 100.223 37.0323 100.223 35.239C100.223 33.4458 98.7932 32.0163 97 32.0163Z" fill="white"/>
<path d="M3.04 0.27V21.18H0.31V0.27H3.04Z" fill="white"/>
<path d="M22.3209 21.39C20.9409 21.39 19.7009 21.15 18.6009 20.67C17.5209 20.17 16.6709 19.49 16.0509 18.63C15.4309 17.75 15.1109 16.74 15.0909 15.6H18.0009C18.1009 16.58 18.5009 17.41 19.2009 18.09C19.9209 18.75 20.9609 19.08 22.3209 19.08C23.6209 19.08 24.6409 18.76 25.3809 18.12C26.1409 17.46 26.5209 16.62 26.5209 15.6C26.5209 14.8 26.3009 14.15 25.8609 13.65C25.4209 13.15 24.8709 12.77 24.2109 12.51C23.5509 12.25 22.6609 11.97 21.5409 11.67C20.1609 11.31 19.0509 10.95 18.2109 10.59C17.3909 10.23 16.6809 9.67 16.0809 8.91C15.5009 8.13 15.2109 7.09 15.2109 5.79C15.2109 4.65 15.5009 3.64 16.0809 2.76C16.6609 1.88 17.4709 1.2 18.5109 0.72C19.5709 0.24 20.7809 0 22.1409 0C24.1009 0 25.7009 0.49 26.9409 1.47C28.2009 2.45 28.9109 3.75 29.0709 5.37H26.0709C25.9709 4.57 25.5509 3.87 24.8109 3.27C24.0709 2.65 23.0909 2.34 21.8709 2.34C20.7309 2.34 19.8009 2.64 19.0809 3.24C18.3609 3.82 18.0009 4.64 18.0009 5.7C18.0009 6.46 18.2109 7.08 18.6309 7.56C19.0709 8.04 19.6009 8.41 20.2209 8.67C20.8609 8.91 21.7509 9.19 22.8909 9.51C24.2709 9.89 25.3809 10.27 26.2209 10.65C27.0609 11.01 27.7809 11.58 28.3809 12.36C28.9809 13.12 29.2809 14.16 29.2809 15.48C29.2809 16.5 29.0109 17.46 28.4709 18.36C27.9309 19.26 27.1309 19.99 26.0709 20.55C25.0109 21.11 23.7609 21.39 22.3209 21.39Z" fill="white"/>
<path d="M48.2983 12.33C48.2983 12.85 48.2683 13.4 48.2083 13.98H35.0683C35.1683 15.6 35.7183 16.87 36.7183 17.79C37.7383 18.69 38.9683 19.14 40.4083 19.14C41.5883 19.14 42.5683 18.87 43.3483 18.33C44.1483 17.77 44.7083 17.03 45.0283 16.11H47.9683C47.5283 17.69 46.6483 18.98 45.3283 19.98C44.0083 20.96 42.3683 21.45 40.4083 21.45C38.8483 21.45 37.4483 21.1 36.2083 20.4C34.9883 19.7 34.0283 18.71 33.3283 17.43C32.6283 16.13 32.2783 14.63 32.2783 12.93C32.2783 11.23 32.6183 9.74 33.2983 8.46C33.9783 7.18 34.9283 6.2 36.1483 5.52C37.3883 4.82 38.8083 4.47 40.4083 4.47C41.9683 4.47 43.3483 4.81 44.5483 5.49C45.7483 6.17 46.6683 7.11 47.3083 8.31C47.9683 9.49 48.2983 10.83 48.2983 12.33ZM45.4783 11.76C45.4783 10.72 45.2483 9.83 44.7883 9.09C44.3283 8.33 43.6983 7.76 42.8983 7.38C42.1183 6.98 41.2483 6.78 40.2883 6.78C38.9083 6.78 37.7283 7.22 36.7483 8.1C35.7883 8.98 35.2383 10.2 35.0983 11.76H45.4783Z" fill="white"/>
<path d="M66.9018 12.33C66.9018 12.85 66.8718 13.4 66.8118 13.98H53.6718C53.7718 15.6 54.3218 16.87 55.3218 17.79C56.3418 18.69 57.5718 19.14 59.0118 19.14C60.1918 19.14 61.1718 18.87 61.9518 18.33C62.7518 17.77 63.3118 17.03 63.6318 16.11H66.5718C66.1318 17.69 65.2518 18.98 63.9318 19.98C62.6118 20.96 60.9718 21.45 59.0118 21.45C57.4518 21.45 56.0518 21.1 54.8118 20.4C53.5918 19.7 52.6318 18.71 51.9318 17.43C51.2318 16.13 50.8818 14.63 50.8818 12.93C50.8818 11.23 51.2218 9.74 51.9018 8.46C52.5818 7.18 53.5318 6.2 54.7518 5.52C55.9918 4.82 57.4118 4.47 59.0118 4.47C60.5718 4.47 61.9518 4.81 63.1518 5.49C64.3518 6.17 65.2718 7.11 65.9118 8.31C66.5718 9.49 66.9018 10.83 66.9018 12.33ZM64.0818 11.76C64.0818 10.72 63.8518 9.83 63.3918 9.09C62.9318 8.33 62.3018 7.76 61.5018 7.38C60.7218 6.98 59.8518 6.78 58.8918 6.78C57.5118 6.78 56.3318 7.22 55.3518 8.1C54.3918 8.98 53.8418 10.2 53.7018 11.76H64.0818Z" fill="white"/>
<path d="M137.38 0L130.57 13.02V20.91H127.84V13.02L121 0H124.03L129.19 10.59L134.35 0H137.38Z" fill="white"/>
<path d="M147.43 21.18C145.89 21.18 144.49 20.83 143.23 20.13C141.99 19.43 141.01 18.44 140.29 17.16C139.59 15.86 139.24 14.36 139.24 12.66C139.24 10.98 139.6 9.5 140.32 8.22C141.06 6.92 142.06 5.93 143.32 5.25C144.58 4.55 145.99 4.2 147.55 4.2C149.11 4.2 150.52 4.55 151.78 5.25C153.04 5.93 154.03 6.91 154.75 8.19C155.49 9.47 155.86 10.96 155.86 12.66C155.86 14.36 155.48 15.86 154.72 17.16C153.98 18.44 152.97 19.43 151.69 20.13C150.41 20.83 148.99 21.18 147.43 21.18ZM147.43 18.78C148.41 18.78 149.33 18.55 150.19 18.09C151.05 17.63 151.74 16.94 152.26 16.02C152.8 15.1 153.07 13.98 153.07 12.66C153.07 11.34 152.81 10.22 152.29 9.3C151.77 8.38 151.09 7.7 150.25 7.26C149.41 6.8 148.5 6.57 147.52 6.57C146.52 6.57 145.6 6.8 144.76 7.26C143.94 7.7 143.28 8.38 142.78 9.3C142.28 10.22 142.03 11.34 142.03 12.66C142.03 14 142.27 15.13 142.75 16.05C143.25 16.97 143.91 17.66 144.73 18.12C145.55 18.56 146.45 18.78 147.43 18.78Z" fill="white"/>
<path d="M174.029 4.47V20.91H171.299V18.48C170.779 19.32 170.049 19.98 169.109 20.46C168.189 20.92 167.169 21.15 166.049 21.15C164.769 21.15 163.619 20.89 162.599 20.37C161.579 19.83 160.769 19.03 160.169 17.97C159.589 16.91 159.299 15.62 159.299 14.1V4.47H161.999V13.74C161.999 15.36 162.409 16.61 163.229 17.49C164.049 18.35 165.169 18.78 166.589 18.78C168.049 18.78 169.199 18.33 170.039 17.43C170.879 16.53 171.299 15.22 171.299 13.5V4.47H174.029Z" fill="white"/>
</svg>
